<mxfile host="65bd71144e" scale="1" border="20">
    <diagram id="nkNW6pn-rlpcjpKIPTp9" name="第 1 页">
        <mxGraphModel dx="1014" dy="503" grid="1" gridSize="10" guides="1" tooltips="1" connect="1" arrows="1" fold="1" page="1" pageScale="1" pageWidth="827" pageHeight="1169" background="#ffffff" math="0" shadow="0">
            <root>
                <mxCell id="0"/>
                <mxCell id="1" parent="0"/>
                <mxCell id="2" value="&lt;font color=&quot;#000000&quot;&gt;栈&lt;/font&gt;" style="swimlane;whiteSpace=wrap;html=1;strokeColor=#000000;fillColor=none;" vertex="1" parent="1">
                    <mxGeometry x="110" y="70" width="220" height="190" as="geometry"/>
                </mxCell>
                <mxCell id="4" value="" style="rounded=1;whiteSpace=wrap;html=1;strokeColor=#b46504;fillColor=#fad7ac;" vertex="1" parent="2">
                    <mxGeometry x="50" y="40" width="100" height="30" as="geometry"/>
                </mxCell>
                <mxCell id="9" value="" style="rounded=1;whiteSpace=wrap;html=1;strokeColor=#b46504;fillColor=#fad7ac;" vertex="1" parent="2">
                    <mxGeometry x="50" y="70" width="100" height="30" as="geometry"/>
                </mxCell>
                <mxCell id="10" value="&lt;font color=&quot;#000000&quot;&gt;3&lt;/font&gt;" style="rounded=1;whiteSpace=wrap;html=1;strokeColor=#b46504;fillColor=#fad7ac;" vertex="1" parent="2">
                    <mxGeometry x="50" y="100" width="100" height="30" as="geometry"/>
                </mxCell>
                <mxCell id="11" value="长度" style="text;html=1;align=center;verticalAlign=middle;resizable=0;points=[];autosize=1;strokeColor=none;fillColor=none;fontColor=#000000;" vertex="1" parent="2">
                    <mxGeometry x="10" y="100" width="50" height="30" as="geometry"/>
                </mxCell>
                <mxCell id="17" value="后端" style="text;html=1;align=center;verticalAlign=middle;resizable=0;points=[];autosize=1;strokeColor=none;fillColor=none;fontColor=#000000;" vertex="1" parent="2">
                    <mxGeometry x="10" y="70" width="50" height="30" as="geometry"/>
                </mxCell>
                <mxCell id="18" value="前端" style="text;html=1;align=center;verticalAlign=middle;resizable=0;points=[];autosize=1;strokeColor=none;fillColor=none;fontColor=#000000;" vertex="1" parent="2">
                    <mxGeometry x="10" y="40" width="50" height="30" as="geometry"/>
                </mxCell>
                <mxCell id="3" value="&lt;font color=&quot;#000000&quot;&gt;堆&lt;/font&gt;" style="swimlane;whiteSpace=wrap;html=1;strokeColor=#000000;fillColor=none;" vertex="1" parent="1">
                    <mxGeometry x="360" y="70" width="470" height="190" as="geometry"/>
                </mxCell>
                <mxCell id="30" style="edgeStyle=none;html=1;exitX=1;exitY=0.5;exitDx=0;exitDy=0;entryX=0;entryY=0.5;entryDx=0;entryDy=0;strokeColor=#000000;fontColor=#000000;" edge="1" parent="3" source="20" target="23">
                    <mxGeometry relative="1" as="geometry"/>
                </mxCell>
                <mxCell id="20" value="" style="rounded=1;whiteSpace=wrap;html=1;strokeColor=#b46504;fillColor=#fad7ac;" vertex="1" parent="3">
                    <mxGeometry x="42" y="50" width="100" height="30" as="geometry"/>
                </mxCell>
                <mxCell id="21" value="&lt;font color=&quot;#000000&quot;&gt;null&lt;/font&gt;" style="rounded=1;whiteSpace=wrap;html=1;strokeColor=#b46504;fillColor=#fad7ac;" vertex="1" parent="3">
                    <mxGeometry x="42" y="80" width="100" height="30" as="geometry"/>
                </mxCell>
                <mxCell id="22" value="&lt;font color=&quot;#000000&quot;&gt;A&lt;/font&gt;" style="rounded=1;whiteSpace=wrap;html=1;strokeColor=#b46504;fillColor=#fad7ac;" vertex="1" parent="3">
                    <mxGeometry x="42" y="110" width="100" height="30" as="geometry"/>
                </mxCell>
                <mxCell id="31" style="edgeStyle=none;html=1;exitX=1;exitY=0.5;exitDx=0;exitDy=0;entryX=0;entryY=0.5;entryDx=0;entryDy=0;strokeColor=#000000;fontColor=#000000;" edge="1" parent="3" source="23" target="26">
                    <mxGeometry relative="1" as="geometry"/>
                </mxCell>
                <mxCell id="23" value="" style="rounded=1;whiteSpace=wrap;html=1;strokeColor=#b46504;fillColor=#fad7ac;" vertex="1" parent="3">
                    <mxGeometry x="188" y="50" width="100" height="30" as="geometry"/>
                </mxCell>
                <mxCell id="33" style="edgeStyle=none;html=1;exitX=0;exitY=0.5;exitDx=0;exitDy=0;entryX=1;entryY=0.5;entryDx=0;entryDy=0;strokeColor=#000000;fontColor=#000000;" edge="1" parent="3" source="24" target="21">
                    <mxGeometry relative="1" as="geometry"/>
                </mxCell>
                <mxCell id="24" value="" style="rounded=1;whiteSpace=wrap;html=1;strokeColor=#b46504;fillColor=#fad7ac;" vertex="1" parent="3">
                    <mxGeometry x="188" y="80" width="100" height="30" as="geometry"/>
                </mxCell>
                <mxCell id="25" value="&lt;font color=&quot;#000000&quot;&gt;B&lt;/font&gt;" style="rounded=1;whiteSpace=wrap;html=1;strokeColor=#b46504;fillColor=#fad7ac;" vertex="1" parent="3">
                    <mxGeometry x="188" y="110" width="100" height="30" as="geometry"/>
                </mxCell>
                <mxCell id="26" value="&lt;font color=&quot;#000000&quot;&gt;null&lt;/font&gt;" style="rounded=1;whiteSpace=wrap;html=1;strokeColor=#b46504;fillColor=#fad7ac;" vertex="1" parent="3">
                    <mxGeometry x="338" y="50" width="100" height="30" as="geometry"/>
                </mxCell>
                <mxCell id="32" style="edgeStyle=none;html=1;exitX=0;exitY=0.5;exitDx=0;exitDy=0;entryX=1;entryY=0.5;entryDx=0;entryDy=0;strokeColor=#000000;fontColor=#000000;" edge="1" parent="3" source="27" target="24">
                    <mxGeometry relative="1" as="geometry"/>
                </mxCell>
                <mxCell id="27" value="" style="rounded=1;whiteSpace=wrap;html=1;strokeColor=#b46504;fillColor=#fad7ac;" vertex="1" parent="3">
                    <mxGeometry x="338" y="80" width="100" height="30" as="geometry"/>
                </mxCell>
                <mxCell id="28" value="&lt;font color=&quot;#000000&quot;&gt;C&lt;/font&gt;" style="rounded=1;whiteSpace=wrap;html=1;strokeColor=#b46504;fillColor=#fad7ac;" vertex="1" parent="3">
                    <mxGeometry x="338" y="110" width="100" height="30" as="geometry"/>
                </mxCell>
                <mxCell id="34" value="元素" style="text;html=1;align=center;verticalAlign=middle;resizable=0;points=[];autosize=1;strokeColor=none;fillColor=none;fontColor=#000000;" vertex="1" parent="3">
                    <mxGeometry x="-5" y="110" width="50" height="30" as="geometry"/>
                </mxCell>
                <mxCell id="35" value="上一个" style="text;html=1;align=center;verticalAlign=middle;resizable=0;points=[];autosize=1;strokeColor=none;fillColor=none;fontColor=#000000;" vertex="1" parent="3">
                    <mxGeometry x="-10" y="80" width="60" height="30" as="geometry"/>
                </mxCell>
                <mxCell id="36" value="下一个" style="text;html=1;align=center;verticalAlign=middle;resizable=0;points=[];autosize=1;strokeColor=none;fillColor=none;fontColor=#000000;" vertex="1" parent="3">
                    <mxGeometry x="-6" y="50" width="60" height="30" as="geometry"/>
                </mxCell>
                <mxCell id="38" style="edgeStyle=none;html=1;exitX=1;exitY=0.5;exitDx=0;exitDy=0;entryX=0.767;entryY=0.667;entryDx=0;entryDy=0;entryPerimeter=0;strokeColor=#000000;fontColor=#000000;" edge="1" parent="1" source="4" target="36">
                    <mxGeometry relative="1" as="geometry"/>
                </mxCell>
                <mxCell id="39" style="edgeStyle=orthogonalEdgeStyle;html=1;exitX=1;exitY=0.5;exitDx=0;exitDy=0;entryX=0.593;entryY=-0.105;entryDx=0;entryDy=0;entryPerimeter=0;strokeColor=#000000;fontColor=#000000;" edge="1" parent="1" source="9" target="26">
                    <mxGeometry relative="1" as="geometry">
                        <Array as="points">
                            <mxPoint x="300" y="155"/>
                            <mxPoint x="300" y="30"/>
                            <mxPoint x="757" y="30"/>
                        </Array>
                    </mxGeometry>
                </mxCell>
            </root>
        </mxGraphModel>
    </diagram>
</mxfile>